{"title":"The.Seventh.Victim.1943.DVDrip.Xvid.CG","uid":9617984,"size":1566309831,"categoryP":"video","categoryS":"movies","magnet":"?xt=urn:btih:b68fbb4a9203af0c2abd5ef7cadd4c9558b7e86d&amp;dn=The.Seventh.Victim.1943.DVDrip.Xvid.CG&amp;tr=udp%3A%2F%2Ftracker.openbittorrent.com%3A80&amp;tr=udp%3A%2F%2Fopen.demonii.com%3A1337&amp;tr=udp%3A%2F%2Ftracker.coppersurfer.tk%3A6969&amp;tr=udp%3A%2F%2Fexodus.desync.com%3A6969","seeders":2,"leechers":2,"uploader":"mago1974","files":2,"time":1392444573,"description":"General\nComplete name                  : The.Seventh Victim.DVDrip.CG.avi\nFormat                         : AVI\nFormat/Info                    : Audio Video Interleave\nFile size                      : 1.46 GiB\nDuration                       : 1h 10mn\nOverall bit rate               : 2 945 Kbps\nWriting application            : VirtualDubMod 1.5.4.1 (build 2178/release)\nWriting library                : VirtualDubMod build 2178/release\n\nVideo\nID                             : 0\nFormat                         : MPEG-4 Visual\nFormat profile                 : Advanced Simple@L5\nFormat settings, BVOP          : No\nFormat settings, QPel          : No\nFormat settings, GMC           : No warppoints\nFormat settings, Matrix        : Custom\nCodec ID                       : XVID\nCodec ID/Hint                  : XviD\nDuration                       : 1h 10mn\nBit rate                       : 2 552 Kbps\nWidth                          : 720 pixels\nHeight                         : 544 pixels\nDisplay aspect ratio           : 4:3\nFrame rate                     : 23.976 fps\nColor space                    : YUV\nChroma subsampling             : 4:2:0\nBit depth                      : 8 bits\nScan type                      : Progressive\nCompression mode               : Lossy\nBits/(Pixel*Frame)             : 0.272\nStream size                    : 1.26 GiB (87%)\nWriting library                : XviD 1.3.0.dev55\n\nAudio #1\nID                             : 1\nFormat                         : AC-3\nFormat/Info                    : Audio Coding 3\nMode extension                 : CM (complete main)\nFormat settings, Endianness    : Big\nCodec ID                       : 2000\nDuration                       : 1h 10mn\nBit rate mode                  : Constant\nBit rate                       : 192 Kbps\nChannel count                  : 1 channel\nChannel positions              : Front: C\nSampling rate                  : 48.0 KHz\nBit depth                      : 16 bits\nCompression mode               : Lossy\nDelay relative to video        : 7ms\nStream size                    : 97.4 MiB (7%)\nAlignment                      : Split accross interleaves\nInterleave, duration           : 96 ms (2.30 video frames)\nInterleave, preload duration   : 96 ms\nLanguage                       : English\n\nAudio #2\nID                             : 2\nFormat                         : AC-3\nFormat/Info                    : Audio Coding 3\nMode extension                 : CM (complete main)\nFormat settings, Endianness    : Big\nCodec ID                       : 2000\nDuration                       : 1h 10mn\nBit rate mode                  : Constant\nBit rate                       : 192 Kbps\nChannel count                  : 2 channels\nChannel positions              : Front: L R\nSampling rate                  : 48.0 KHz\nBit depth                      : 16 bits\nCompression mode               : Lossy\nDelay relative to video        : 7ms\nStream size                    : 97.4 MiB (7%)\nAlignment                      : Split accross interleaves\nInterleave, duration           : 96 ms (2.30 video frames)\nInterleave, preload duration   : 96 ms\nLanguage                       : English - Director's Comments\n","torrent":{"xt":"urn:btih:b68fbb4a9203af0c2abd5ef7cadd4c9558b7e86d","amp;dn":"The.Seventh.Victim.1943.DVDrip.Xvid.CG","amp;tr":["udp%3A%2F%2Ftracker.openbittorrent.com%3A80","udp%3A%2F%2Fopen.demonii.com%3A1337","udp%3A%2F%2Ftracker.coppersurfer.tk%3A6969","udp%3A%2F%2Fexodus.desync.com%3A6969"],"infoHash":"b68fbb4a9203af0c2abd5ef7cadd4c9558b7e86d","infoHashBuffer":{"type":"Buffer","data":[182,143,187,74,146,3,175,12,42,189,94,247,202,221,76,149,88,183,232,109]},"announce":[],"urlList":[]}}